<?xml version="1.0" encoding="UTF-8"?><svg xmlns="http://www.w3.org/2000/svg" xmlns:xlink="http://www.w3.org/1999/xlink" fill-opacity="1" color-rendering="auto" color-interpolation="auto" text-rendering="auto" stroke="black" stroke-linecap="square" width="632" stroke-miterlimit="10" shape-rendering="auto" stroke-opacity="1" fill="black" stroke-dasharray="none" font-weight="normal" stroke-width="1" height="290" font-family="'Dialog'" font-style="normal" stroke-linejoin="miter" font-size="12px" stroke-dashoffset="0" image-rendering="auto">
  <!--Generated by ySVG 2.6-->
  <defs id="genericDefs"/>
  <g>
    <defs id="defs1">
      <clipPath clipPathUnits="userSpaceOnUse" id="clipPath1">
        <path d="M0 0 L632 0 L632 290 L0 290 L0 0 Z"/>
      </clipPath>
      <clipPath clipPathUnits="userSpaceOnUse" id="clipPath2">
        <path d="M439 270 L1071 270 L1071 560 L439 560 L439 270 Z"/>
      </clipPath>
    </defs>
    <g fill="white" text-rendering="geometricPrecision" shape-rendering="geometricPrecision" transform="translate(-439,-270)" stroke="white">
      <rect x="439" width="632" height="290" y="270" clip-path="url(#clipPath2)" stroke="none"/>
    </g>
    <g fill="rgb(204,255,255)" text-rendering="geometricPrecision" shape-rendering="geometricPrecision" transform="matrix(1,0,0,1,-439,-270)" stroke="rgb(204,255,255)">
      <rect x="454.5" width="150" height="150" y="285.5" clip-path="url(#clipPath2)" stroke="none"/>
    </g>
    <g stroke-linecap="round" transform="matrix(1,0,0,1,-439,-270)" stroke-dashoffset="2" text-rendering="geometricPrecision" shape-rendering="geometricPrecision" stroke-dasharray="0,12" stroke-width="3" stroke-miterlimit="1.45">
      <rect fill="none" x="454.5" width="150" height="150" y="285.5" clip-path="url(#clipPath2)"/>
    </g>
    <g font-size="52px" stroke-linecap="butt" transform="matrix(1,0,0,1,-439,-270)" text-rendering="geometricPrecision" font-family="'Fira Code'" shape-rendering="geometricPrecision" font-style="italic" stroke-miterlimit="1.45">
      <text x="513.5" xml:space="preserve" y="376.5" clip-path="url(#clipPath2)" stroke="none">σ</text>
    </g>
    <g fill="rgb(204,255,255)" text-rendering="geometricPrecision" shape-rendering="geometricPrecision" transform="matrix(1,0,0,1,-439,-270)" stroke="rgb(204,255,255)">
      <rect x="906" width="150" height="150" y="285.5" clip-path="url(#clipPath2)" stroke="none"/>
    </g>
    <g stroke-linecap="round" transform="matrix(1,0,0,1,-439,-270)" stroke-dashoffset="2" text-rendering="geometricPrecision" shape-rendering="geometricPrecision" stroke-dasharray="0,16" stroke-width="4" stroke-miterlimit="1.45">
      <rect fill="none" x="906" width="150" height="150" y="285.5" clip-path="url(#clipPath2)"/>
    </g>
    <g font-size="52px" stroke-linecap="butt" transform="matrix(1,0,0,1,-439,-270)" text-rendering="geometricPrecision" font-family="sans-serif" shape-rendering="geometricPrecision" font-style="italic" stroke-miterlimit="1.45">
      <text x="966.05" xml:space="preserve" y="380.676" clip-path="url(#clipPath2)" stroke="none">β</text>
    </g>
    <g fill="rgb(102,255,102)" text-rendering="geometricPrecision" shape-rendering="geometricPrecision" transform="matrix(1,0,0,1,-439,-270)" stroke="rgb(102,255,102)">
      <rect x="650.75" width="209" height="57" y="487.94" clip-path="url(#clipPath2)" stroke="none"/>
    </g>
    <g text-rendering="geometricPrecision" stroke-miterlimit="1.45" shape-rendering="geometricPrecision" transform="matrix(1,0,0,1,-439,-270)" stroke-linecap="butt">
      <rect fill="none" x="650.75" width="209" height="57" y="487.94" clip-path="url(#clipPath2)"/>
      <text x="674.0198" font-size="22px" y="523.2092" clip-path="url(#clipPath2)" font-family="'Fira Code'" stroke="none" font-weight="bold" xml:space="preserve">Communicator</text>
      <path fill="none" d="M604.5 360.5 L888.125 360.5" stroke-width="6" clip-path="url(#clipPath2)" stroke="rgb(153,153,153)"/>
      <path fill="rgb(153,153,153)" d="M906 360.5 L886.5 350.75 L886.5 370.25 Z" stroke-width="6" clip-path="url(#clipPath2)" stroke="none"/>
      <text x="674.0198" font-size="22px" y="337.2692" clip-path="url(#clipPath2)" font-family="'Fira Code'" stroke="none" font-weight="bold" xml:space="preserve">ComponentRef</text>
    </g>
    <g stroke-linecap="butt" transform="matrix(1,0,0,1,-439,-270)" fill="gray" text-rendering="geometricPrecision" shape-rendering="geometricPrecision" stroke-dasharray="12,4" stroke="gray" stroke-width="2" stroke-miterlimit="1.45">
      <path fill="none" d="M755.25 487.94 L755.25 360.78" clip-path="url(#clipPath2)"/>
    </g>
    <g font-size="18px" stroke-linecap="butt" transform="matrix(1,0,0,1,-439,-270)" text-rendering="geometricPrecision" font-family="'Fira Code'" shape-rendering="geometricPrecision" font-style="italic" stroke-miterlimit="1.45">
      <text x="769.1019" xml:space="preserve" y="437.5785" clip-path="url(#clipPath2)" stroke="none">protocol</text>
    </g>
  </g>
</svg>
