<?xml version="1.0" encoding="UTF-8"?><svg xmlns="http://www.w3.org/2000/svg" xmlns:xlink="http://www.w3.org/1999/xlink" fill-opacity="1" color-rendering="auto" color-interpolation="auto" text-rendering="auto" stroke="black" stroke-linecap="square" width="1277" stroke-miterlimit="10" shape-rendering="auto" stroke-opacity="1" fill="black" stroke-dasharray="none" font-weight="normal" stroke-width="1" height="755" font-family="'Dialog'" font-style="normal" stroke-linejoin="miter" font-size="12px" stroke-dashoffset="0" image-rendering="auto">
  <!--Generated by ySVG 2.6-->
  <defs id="genericDefs"/>
  <g>
    <defs id="defs1">
      <linearGradient x1="1009.87" gradientUnits="userSpaceOnUse" x2="1208.67" y1="238.3" y2="316.9" id="linearGradient1" spreadMethod="reflect">
        <stop stop-opacity="1" stop-color="rgb(232,238,247)" offset="0%"/>
        <stop stop-opacity="1" stop-color="rgb(183,201,227)" offset="100%"/>
      </linearGradient>
      <clipPath clipPathUnits="userSpaceOnUse" id="clipPath1">
        <path d="M0 0 L1277 0 L1277 755 L0 755 L0 0 Z"/>
      </clipPath>
      <clipPath clipPathUnits="userSpaceOnUse" id="clipPath2">
        <path d="M539 -100 L1816 -100 L1816 655 L539 655 L539 -100 Z"/>
      </clipPath>
    </defs>
    <g fill="white" text-rendering="geometricPrecision" shape-rendering="geometricPrecision" transform="translate(-539,100)" stroke="white">
      <rect x="539" width="1277" height="755" y="-100" clip-path="url(#clipPath2)" stroke="none"/>
    </g>
    <g fill="white" text-rendering="geometricPrecision" shape-rendering="geometricPrecision" transform="matrix(1,0,0,1,-539,100)" stroke="white">
      <rect x="555.2" width="720" height="200" y="177.6" clip-path="url(#clipPath2)" stroke="none"/>
    </g>
    <g text-rendering="geometricPrecision" stroke-miterlimit="1.45" stroke-width="6" shape-rendering="geometricPrecision" transform="matrix(1,0,0,1,-539,100)" stroke-linecap="butt">
      <rect fill="none" x="555.2" width="720" height="200" y="177.6" clip-path="url(#clipPath2)"/>
      <text x="561.2" font-size="24px" y="164.2154" clip-path="url(#clipPath2)" font-family="'Fira Code'" stroke="none" stroke-width="1" xml:space="preserve">PC / Cloud</text>
    </g>
    <g fill="rgb(255,255,153)" text-rendering="geometricPrecision" shape-rendering="geometricPrecision" transform="matrix(1,0,0,1,-539,100)" stroke="rgb(255,255,153)">
      <rect x="746.62" width="150" height="150" y="452.352" clip-path="url(#clipPath2)" stroke="none"/>
    </g>
    <g text-rendering="geometricPrecision" stroke-miterlimit="1.45" stroke-width="2" shape-rendering="geometricPrecision" transform="matrix(1,0,0,1,-539,100)" stroke-linecap="butt">
      <rect fill="none" x="746.62" width="150" height="150" y="452.352" clip-path="url(#clipPath2)"/>
      <text x="747.7741" font-size="24px" y="630.5057" clip-path="url(#clipPath2)" font-family="'Fira Code'" stroke="none" stroke-width="1" xml:space="preserve">Smartphone</text>
    </g>
    <g fill="gray" text-rendering="geometricPrecision" shape-rendering="geometricPrecision" transform="matrix(1,0,0,1,-539,100)" stroke="gray">
      <rect x="1125.2" width="150" height="150" y="452.352" clip-path="url(#clipPath2)" stroke="none"/>
    </g>
    <g text-rendering="geometricPrecision" stroke-miterlimit="1.45" stroke-width="5" shape-rendering="geometricPrecision" transform="matrix(1,0,0,1,-539,100)" stroke-linecap="butt">
      <rect fill="none" x="1125.2" width="150" height="150" y="452.352" clip-path="url(#clipPath2)"/>
      <text x="1126.3541" font-size="24px" y="630.5057" clip-path="url(#clipPath2)" font-family="'Fira Code'" stroke="none" stroke-width="1" xml:space="preserve">Smartphone</text>
    </g>
    <g fill="aqua" text-rendering="geometricPrecision" shape-rendering="geometricPrecision" transform="matrix(1,0,0,1,-539,100)" stroke="aqua">
      <rect x="840.2" width="150" height="150" y="-47.152" clip-path="url(#clipPath2)" stroke="none"/>
    </g>
    <g text-rendering="geometricPrecision" stroke-miterlimit="1.45" stroke-width="5" shape-rendering="geometricPrecision" transform="matrix(1,0,0,1,-539,100)" stroke-linecap="butt">
      <rect fill="none" x="840.2" width="150" height="150" y="-47.152" clip-path="url(#clipPath2)"/>
      <text x="848.7387" font-size="24px" y="-60.5366" clip-path="url(#clipPath2)" font-family="'Fira Code'" stroke="none" stroke-width="1" xml:space="preserve">Estimator</text>
    </g>
    <g fill="url(#linearGradient1)" text-rendering="geometricPrecision" shape-rendering="geometricPrecision" transform="matrix(1,0,0,1,-539,100)" stroke="url(#linearGradient1)">
      <path d="M1019.695 238.3 L1198.845 238.3 Q1218.495 277.6 1198.845 316.9 L1019.695 316.9 Q1000.045 277.6 1019.695 238.3 Z" stroke="none" clip-path="url(#clipPath2)"/>
    </g>
    <g text-rendering="geometricPrecision" stroke-miterlimit="1.45" shape-rendering="geometricPrecision" transform="matrix(1,0,0,1,-539,100)" stroke-linecap="butt">
      <path fill="none" d="M1019.695 238.3 L1198.845 238.3 Q1218.495 277.6 1198.845 316.9 L1019.695 316.9 Q1000.045 277.6 1019.695 238.3 Z" clip-path="url(#clipPath2)"/>
      <path fill="none" d="M1198.845 238.3 Q1179.1949 277.6 1198.845 316.9" clip-path="url(#clipPath2)"/>
      <text x="1039.5168" font-size="24px" y="284.9846" clip-path="url(#clipPath2)" font-family="'Fira Code'" stroke="none" xml:space="preserve">RabbitMQ</text>
    </g>
    <g fill="rgb(255,204,0)" text-rendering="geometricPrecision" shape-rendering="geometricPrecision" transform="matrix(1,0,0,1,-539,100)" stroke="rgb(255,204,0)">
      <rect x="1140.572" width="50" height="50" y="467.158" clip-path="url(#clipPath2)" stroke="none"/>
    </g>
    <g text-rendering="geometricPrecision" stroke-miterlimit="1.45" shape-rendering="geometricPrecision" transform="matrix(1,0,0,1,-539,100)" stroke-linecap="butt">
      <rect fill="none" x="1140.572" width="50" height="50" y="467.158" clip-path="url(#clipPath2)"/>
      <text x="1155.7258" font-size="32px" y="502.0042" clip-path="url(#clipPath2)" font-family="'Fira Code'" stroke="none" xml:space="preserve">κ</text>
    </g>
    <g fill="rgb(255,204,0)" text-rendering="geometricPrecision" shape-rendering="geometricPrecision" transform="matrix(1,0,0,1,-539,100)" stroke="rgb(255,204,0)">
      <rect x="1210.572" width="50" height="50" y="467.158" clip-path="url(#clipPath2)" stroke="none"/>
    </g>
    <g text-rendering="geometricPrecision" stroke-miterlimit="1.45" shape-rendering="geometricPrecision" transform="matrix(1,0,0,1,-539,100)" stroke-linecap="butt">
      <rect fill="none" x="1210.572" width="50" height="50" y="467.158" clip-path="url(#clipPath2)"/>
      <text x="1225.7258" font-size="32px" y="502.0042" clip-path="url(#clipPath2)" font-family="'Fira Code'" stroke="none" xml:space="preserve">χ</text>
    </g>
    <g fill="rgb(255,204,0)" text-rendering="geometricPrecision" shape-rendering="geometricPrecision" transform="matrix(1,0,0,1,-539,100)" stroke="rgb(255,204,0)">
      <rect x="1140.572" width="50" height="50" y="537.158" clip-path="url(#clipPath2)" stroke="none"/>
    </g>
    <g text-rendering="geometricPrecision" stroke-miterlimit="1.45" shape-rendering="geometricPrecision" transform="matrix(1,0,0,1,-539,100)" stroke-linecap="butt">
      <rect fill="none" x="1140.572" width="50" height="50" y="537.158" clip-path="url(#clipPath2)"/>
      <text x="1155.7258" font-size="32px" y="572.0042" clip-path="url(#clipPath2)" font-family="'Fira Code'" stroke="none" xml:space="preserve">β</text>
    </g>
    <g fill="rgb(255,204,0)" text-rendering="geometricPrecision" shape-rendering="geometricPrecision" transform="matrix(1,0,0,1,-539,100)" stroke="rgb(255,204,0)">
      <rect x="1210.572" width="50" height="50" y="537.158" clip-path="url(#clipPath2)" stroke="none"/>
    </g>
    <g text-rendering="geometricPrecision" stroke-miterlimit="1.45" shape-rendering="geometricPrecision" transform="matrix(1,0,0,1,-539,100)" stroke-linecap="butt">
      <rect fill="none" x="1210.572" width="50" height="50" y="537.158" clip-path="url(#clipPath2)"/>
      <text x="1225.7258" font-size="32px" y="572.0042" clip-path="url(#clipPath2)" font-family="'Fira Code'" stroke="none" xml:space="preserve">σ</text>
    </g>
    <g fill="gray" text-rendering="geometricPrecision" shape-rendering="geometricPrecision" transform="matrix(1,0,0,1,-539,100)" stroke="gray">
      <rect x="938.04" width="150" height="150" y="452.352" clip-path="url(#clipPath2)" stroke="none"/>
    </g>
    <g text-rendering="geometricPrecision" stroke-miterlimit="1.45" stroke-width="5" shape-rendering="geometricPrecision" transform="matrix(1,0,0,1,-539,100)" stroke-linecap="butt">
      <rect fill="none" x="938.04" width="150" height="150" y="452.352" clip-path="url(#clipPath2)"/>
      <text x="939.1941" font-size="24px" y="630.5057" clip-path="url(#clipPath2)" font-family="'Fira Code'" stroke="none" stroke-width="1" xml:space="preserve">Smartphone</text>
    </g>
    <g fill="rgb(255,204,0)" text-rendering="geometricPrecision" shape-rendering="geometricPrecision" transform="matrix(1,0,0,1,-539,100)" stroke="rgb(255,204,0)">
      <rect x="953.412" width="50" height="50" y="467.158" clip-path="url(#clipPath2)" stroke="none"/>
    </g>
    <g text-rendering="geometricPrecision" stroke-miterlimit="1.45" shape-rendering="geometricPrecision" transform="matrix(1,0,0,1,-539,100)" stroke-linecap="butt">
      <rect fill="none" x="953.412" width="50" height="50" y="467.158" clip-path="url(#clipPath2)"/>
      <text x="968.5658" font-size="32px" y="502.0042" clip-path="url(#clipPath2)" font-family="'Fira Code'" stroke="none" xml:space="preserve">κ</text>
    </g>
    <g fill="rgb(255,204,0)" text-rendering="geometricPrecision" shape-rendering="geometricPrecision" transform="matrix(1,0,0,1,-539,100)" stroke="rgb(255,204,0)">
      <rect x="1023.412" width="50" height="50" y="467.158" clip-path="url(#clipPath2)" stroke="none"/>
    </g>
    <g text-rendering="geometricPrecision" stroke-miterlimit="1.45" shape-rendering="geometricPrecision" transform="matrix(1,0,0,1,-539,100)" stroke-linecap="butt">
      <rect fill="none" x="1023.412" width="50" height="50" y="467.158" clip-path="url(#clipPath2)"/>
      <text x="1038.5658" font-size="32px" y="502.0042" clip-path="url(#clipPath2)" font-family="'Fira Code'" stroke="none" xml:space="preserve">χ</text>
    </g>
    <g fill="rgb(255,204,0)" text-rendering="geometricPrecision" shape-rendering="geometricPrecision" transform="matrix(1,0,0,1,-539,100)" stroke="rgb(255,204,0)">
      <rect x="953.412" width="50" height="50" y="537.158" clip-path="url(#clipPath2)" stroke="none"/>
    </g>
    <g text-rendering="geometricPrecision" stroke-miterlimit="1.45" shape-rendering="geometricPrecision" transform="matrix(1,0,0,1,-539,100)" stroke-linecap="butt">
      <rect fill="none" x="953.412" width="50" height="50" y="537.158" clip-path="url(#clipPath2)"/>
      <text x="968.5658" font-size="32px" y="572.0042" clip-path="url(#clipPath2)" font-family="'Fira Code'" stroke="none" xml:space="preserve">β</text>
    </g>
    <g fill="rgb(255,204,0)" text-rendering="geometricPrecision" shape-rendering="geometricPrecision" transform="matrix(1,0,0,1,-539,100)" stroke="rgb(255,204,0)">
      <rect x="1023.412" width="50" height="50" y="537.158" clip-path="url(#clipPath2)" stroke="none"/>
    </g>
    <g text-rendering="geometricPrecision" stroke-miterlimit="1.45" shape-rendering="geometricPrecision" transform="matrix(1,0,0,1,-539,100)" stroke-linecap="butt">
      <rect fill="none" x="1023.412" width="50" height="50" y="537.158" clip-path="url(#clipPath2)"/>
      <text x="1038.5658" font-size="32px" y="572.0042" clip-path="url(#clipPath2)" font-family="'Fira Code'" stroke="none" xml:space="preserve">σ</text>
    </g>
    <g fill="rgb(255,204,0)" text-rendering="geometricPrecision" shape-rendering="geometricPrecision" transform="matrix(1,0,0,1,-539,100)" stroke="rgb(255,204,0)">
      <rect x="760.584" width="50" height="50" y="502.352" clip-path="url(#clipPath2)" stroke="none"/>
    </g>
    <g text-rendering="geometricPrecision" stroke-miterlimit="1.45" shape-rendering="geometricPrecision" transform="matrix(1,0,0,1,-539,100)" stroke-linecap="butt">
      <rect fill="none" x="760.584" width="50" height="50" y="502.352" clip-path="url(#clipPath2)"/>
      <text x="775.7378" font-size="32px" y="537.1982" clip-path="url(#clipPath2)" font-family="'Fira Code'" stroke="none" xml:space="preserve">σ</text>
    </g>
    <g fill="rgb(255,204,0)" text-rendering="geometricPrecision" shape-rendering="geometricPrecision" transform="matrix(1,0,0,1,-539,100)" stroke="rgb(255,204,0)">
      <rect x="830.584" width="50" height="50" y="502.352" clip-path="url(#clipPath2)" stroke="none"/>
    </g>
    <g text-rendering="geometricPrecision" stroke-miterlimit="1.45" shape-rendering="geometricPrecision" transform="matrix(1,0,0,1,-539,100)" stroke-linecap="butt">
      <rect fill="none" x="830.584" width="50" height="50" y="502.352" clip-path="url(#clipPath2)"/>
      <text x="845.7378" font-size="32px" y="537.1982" clip-path="url(#clipPath2)" font-family="'Fira Code'" stroke="none" xml:space="preserve">χ</text>
    </g>
    <g fill="rgb(255,255,153)" text-rendering="geometricPrecision" shape-rendering="geometricPrecision" transform="matrix(1,0,0,1,-539,100)" stroke="rgb(255,255,153)">
      <rect x="555.2" width="150" height="150" y="452.352" clip-path="url(#clipPath2)" stroke="none"/>
    </g>
    <g text-rendering="geometricPrecision" stroke-miterlimit="1.45" stroke-width="2" shape-rendering="geometricPrecision" transform="matrix(1,0,0,1,-539,100)" stroke-linecap="butt">
      <rect fill="none" x="555.2" width="150" height="150" y="452.352" clip-path="url(#clipPath2)"/>
      <text x="556.3541" font-size="24px" y="630.5057" clip-path="url(#clipPath2)" font-family="'Fira Code'" stroke="none" stroke-width="1" xml:space="preserve">Smartphone</text>
    </g>
    <g fill="rgb(255,204,0)" text-rendering="geometricPrecision" shape-rendering="geometricPrecision" transform="matrix(1,0,0,1,-539,100)" stroke="rgb(255,204,0)">
      <rect x="569.164" width="50" height="50" y="502.352" clip-path="url(#clipPath2)" stroke="none"/>
    </g>
    <g text-rendering="geometricPrecision" stroke-miterlimit="1.45" shape-rendering="geometricPrecision" transform="matrix(1,0,0,1,-539,100)" stroke-linecap="butt">
      <rect fill="none" x="569.164" width="50" height="50" y="502.352" clip-path="url(#clipPath2)"/>
      <text x="584.3178" font-size="32px" y="537.1982" clip-path="url(#clipPath2)" font-family="'Fira Code'" stroke="none" xml:space="preserve">σ</text>
    </g>
    <g fill="rgb(255,204,0)" text-rendering="geometricPrecision" shape-rendering="geometricPrecision" transform="matrix(1,0,0,1,-539,100)" stroke="rgb(255,204,0)">
      <rect x="639.164" width="50" height="50" y="502.352" clip-path="url(#clipPath2)" stroke="none"/>
    </g>
    <g text-rendering="geometricPrecision" stroke-miterlimit="1.45" shape-rendering="geometricPrecision" transform="matrix(1,0,0,1,-539,100)" stroke-linecap="butt">
      <rect fill="none" x="639.164" width="50" height="50" y="502.352" clip-path="url(#clipPath2)"/>
      <text x="654.3178" font-size="32px" y="537.1982" clip-path="url(#clipPath2)" font-family="'Fira Code'" stroke="none" xml:space="preserve">χ</text>
    </g>
    <g fill="rgb(255,255,153)" text-rendering="geometricPrecision" shape-rendering="geometricPrecision" transform="matrix(1,0,0,1,-539,100)" stroke="rgb(255,255,153)">
      <rect x="775.02" width="150" height="150" y="202.6" clip-path="url(#clipPath2)" stroke="none"/>
    </g>
    <g stroke-linecap="butt" transform="matrix(1,0,0,1,-539,100)" text-rendering="geometricPrecision" shape-rendering="geometricPrecision" stroke-dasharray="12,4" stroke-width="2" stroke-miterlimit="1.45">
      <rect fill="none" x="775.02" width="150" height="150" y="202.6" clip-path="url(#clipPath2)"/>
    </g>
    <g fill="rgb(255,204,0)" text-rendering="geometricPrecision" shape-rendering="geometricPrecision" transform="matrix(1,0,0,1,-539,100)" stroke="rgb(255,204,0)">
      <rect x="788.984" width="50" height="50" y="252.6" clip-path="url(#clipPath2)" stroke="none"/>
    </g>
    <g text-rendering="geometricPrecision" stroke-miterlimit="1.45" shape-rendering="geometricPrecision" transform="matrix(1,0,0,1,-539,100)" stroke-linecap="butt">
      <rect fill="none" x="788.984" width="50" height="50" y="252.6" clip-path="url(#clipPath2)"/>
      <text x="804.1378" font-size="32px" y="287.4462" clip-path="url(#clipPath2)" font-family="'Fira Code'" stroke="none" xml:space="preserve">β</text>
    </g>
    <g fill="rgb(255,204,0)" text-rendering="geometricPrecision" shape-rendering="geometricPrecision" transform="matrix(1,0,0,1,-539,100)" stroke="rgb(255,204,0)">
      <rect x="858.984" width="50" height="50" y="252.6" clip-path="url(#clipPath2)" stroke="none"/>
    </g>
    <g text-rendering="geometricPrecision" stroke-miterlimit="1.45" shape-rendering="geometricPrecision" transform="matrix(1,0,0,1,-539,100)" stroke-linecap="butt">
      <rect fill="none" x="858.984" width="50" height="50" y="252.6" clip-path="url(#clipPath2)"/>
      <text x="874.1378" font-size="32px" y="287.4462" clip-path="url(#clipPath2)" font-family="'Fira Code'" stroke="none" xml:space="preserve">κ</text>
    </g>
    <g fill="rgb(255,255,153)" text-rendering="geometricPrecision" shape-rendering="geometricPrecision" transform="matrix(1,0,0,1,-539,100)" stroke="rgb(255,255,153)">
      <rect x="583.6" width="150" height="150" y="202.6" clip-path="url(#clipPath2)" stroke="none"/>
    </g>
    <g stroke-linecap="butt" transform="matrix(1,0,0,1,-539,100)" text-rendering="geometricPrecision" shape-rendering="geometricPrecision" stroke-dasharray="12,4" stroke-width="2" stroke-miterlimit="1.45">
      <rect fill="none" x="583.6" width="150" height="150" y="202.6" clip-path="url(#clipPath2)"/>
    </g>
    <g fill="rgb(255,204,0)" text-rendering="geometricPrecision" shape-rendering="geometricPrecision" transform="matrix(1,0,0,1,-539,100)" stroke="rgb(255,204,0)">
      <rect x="597.564" width="50" height="50" y="252.6" clip-path="url(#clipPath2)" stroke="none"/>
    </g>
    <g text-rendering="geometricPrecision" stroke-miterlimit="1.45" shape-rendering="geometricPrecision" transform="matrix(1,0,0,1,-539,100)" stroke-linecap="butt">
      <rect fill="none" x="597.564" width="50" height="50" y="252.6" clip-path="url(#clipPath2)"/>
      <text x="612.7178" font-size="32px" y="287.4462" clip-path="url(#clipPath2)" font-family="'Fira Code'" stroke="none" xml:space="preserve">β</text>
    </g>
    <g fill="rgb(255,204,0)" text-rendering="geometricPrecision" shape-rendering="geometricPrecision" transform="matrix(1,0,0,1,-539,100)" stroke="rgb(255,204,0)">
      <rect x="667.564" width="50" height="50" y="252.6" clip-path="url(#clipPath2)" stroke="none"/>
    </g>
    <g text-rendering="geometricPrecision" stroke-miterlimit="1.45" shape-rendering="geometricPrecision" transform="matrix(1,0,0,1,-539,100)" stroke-linecap="butt">
      <rect fill="none" x="667.564" width="50" height="50" y="252.6" clip-path="url(#clipPath2)"/>
      <text x="682.7178" font-size="32px" y="287.4462" clip-path="url(#clipPath2)" font-family="'Fira Code'" stroke="none" xml:space="preserve">κ</text>
    </g>
    <g fill="rgb(255,204,0)" text-rendering="geometricPrecision" shape-rendering="geometricPrecision" transform="matrix(1,0,0,1,-539,100)" stroke="rgb(255,204,0)">
      <rect x="855.144" width="50" height="50" y="-31.958" clip-path="url(#clipPath2)" stroke="none"/>
    </g>
    <g text-rendering="geometricPrecision" stroke-miterlimit="1.45" shape-rendering="geometricPrecision" transform="matrix(1,0,0,1,-539,100)" stroke-linecap="butt">
      <rect fill="none" x="855.144" width="50" height="50" y="-31.958" clip-path="url(#clipPath2)"/>
      <text x="870.2978" font-size="32px" y="2.8882" clip-path="url(#clipPath2)" font-family="'Fira Code'" stroke="none" xml:space="preserve">α</text>
    </g>
    <g fill="rgb(255,204,0)" text-rendering="geometricPrecision" shape-rendering="geometricPrecision" transform="matrix(1,0,0,1,-539,100)" stroke="rgb(255,204,0)">
      <rect x="925.144" width="50" height="50" y="-31.958" clip-path="url(#clipPath2)" stroke="none"/>
    </g>
    <g text-rendering="geometricPrecision" stroke-miterlimit="1.45" shape-rendering="geometricPrecision" transform="matrix(1,0,0,1,-539,100)" stroke-linecap="butt">
      <rect fill="none" x="925.144" width="50" height="50" y="-31.958" clip-path="url(#clipPath2)"/>
      <text x="940.2978" font-size="32px" y="2.8882" clip-path="url(#clipPath2)" font-family="'Fira Code'" stroke="none" xml:space="preserve">σ</text>
    </g>
    <g fill="rgb(255,204,0)" text-rendering="geometricPrecision" shape-rendering="geometricPrecision" transform="matrix(1,0,0,1,-539,100)" stroke="rgb(255,204,0)">
      <rect x="855.144" width="50" height="50" y="38.042" clip-path="url(#clipPath2)" stroke="none"/>
    </g>
    <g text-rendering="geometricPrecision" stroke-miterlimit="1.45" shape-rendering="geometricPrecision" transform="matrix(1,0,0,1,-539,100)" stroke-linecap="butt">
      <rect fill="none" x="855.144" width="50" height="50" y="38.042" clip-path="url(#clipPath2)"/>
      <text x="870.2978" font-size="32px" y="72.8882" clip-path="url(#clipPath2)" font-family="'Fira Code'" stroke="none" xml:space="preserve">β</text>
    </g>
    <g fill="rgb(255,204,0)" text-rendering="geometricPrecision" shape-rendering="geometricPrecision" transform="matrix(1,0,0,1,-539,100)" stroke="rgb(255,204,0)">
      <rect x="925.144" width="50" height="50" y="38.042" clip-path="url(#clipPath2)" stroke="none"/>
    </g>
    <g text-rendering="geometricPrecision" stroke-miterlimit="1.45" shape-rendering="geometricPrecision" transform="matrix(1,0,0,1,-539,100)" stroke-linecap="butt">
      <rect fill="none" x="925.144" width="50" height="50" y="38.042" clip-path="url(#clipPath2)"/>
      <text x="940.2978" font-size="32px" y="72.8882" clip-path="url(#clipPath2)" font-family="'Fira Code'" stroke="none" xml:space="preserve">χ</text>
      <rect fill="none" x="1437.006" width="363.5644" height="454.558" y="62.6" clip-path="url(#clipPath2)"/>
    </g>
    <g stroke-linecap="butt" transform="matrix(1,0,0,1,-539,100)" fill="red" text-rendering="geometricPrecision" shape-rendering="geometricPrecision" stroke-dasharray="30,10" stroke="red" stroke-width="5" stroke-miterlimit="1.45">
      <path fill="none" d="M1226.4104 467.1752 L1214.2747 434.0823 L1204.7567 412.4394 L1194.0192 392.3739 L1180.5818 371.3716 L1162.9645 346.9181 L1139.7091 316.8961" clip-path="url(#clipPath2)"/>
    </g>
    <g stroke-linecap="butt" transform="matrix(1,0,0,1,-539,100)" text-rendering="geometricPrecision" shape-rendering="geometricPrecision" stroke-dasharray="12,4" stroke-width="2" stroke-miterlimit="1.45">
      <path fill="none" d="M1165.572 517.158 L1165.572 537.158" clip-path="url(#clipPath2)"/>
      <path fill="none" d="M1190.572 537.158 L1210.572 517.158" clip-path="url(#clipPath2)"/>
      <path fill="none" d="M1210.572 562.158 L1190.572 562.158" clip-path="url(#clipPath2)"/>
    </g>
    <g stroke-linecap="butt" transform="matrix(1,0,0,1,-539,100)" fill="red" text-rendering="geometricPrecision" shape-rendering="geometricPrecision" stroke-dasharray="30,10" stroke="red" stroke-width="5" stroke-miterlimit="1.45">
      <path fill="none" d="M1048.8749 467.1718 L1049.3629 440.8323 L1051.6213 420.8769 L1056.0193 401.3739 L1063.2699 379.8091 L1074.0864 353.6681 L1091.0769 316.9341" clip-path="url(#clipPath2)"/>
    </g>
    <g stroke-linecap="butt" transform="matrix(1,0,0,1,-539,100)" text-rendering="geometricPrecision" shape-rendering="geometricPrecision" stroke-dasharray="12,4" stroke-width="2" stroke-miterlimit="1.45">
      <path fill="none" d="M978.412 517.158 L978.412 537.158" clip-path="url(#clipPath2)"/>
      <path fill="none" d="M1003.412 537.158 L1023.412 517.158" clip-path="url(#clipPath2)"/>
      <path fill="none" d="M1023.412 562.158 L1003.412 562.158" clip-path="url(#clipPath2)"/>
    </g>
    <g stroke-linecap="butt" transform="matrix(1,0,0,1,-539,100)" fill="red" text-rendering="geometricPrecision" shape-rendering="geometricPrecision" stroke-dasharray="30,10" stroke="red" stroke-width="5" stroke-miterlimit="1.45">
      <path fill="none" d="M1074.0449 316.9151 L1066.306 324.7504 L1044.3889 343.955 L1022.5181 360.7922 L1000.9462 375.672 L979.9256 389.0039 L940.5483 412.6638 L906.4059 435.0502 L891.9289 446.7903 L879.5179 459.4415 L869.4255 473.4134 L861.9041 489.116 L858.4265 502.3239" clip-path="url(#clipPath2)"/>
      <path fill="none" d="M1065.5488 316.8761 L1057.7954 322.7075 L1039.7611 334.3798 L1021.4071 344.5817 L1002.8043 353.4398 L965.1357 367.6319 L927.323 377.9701 L889.9336 385.4685 L818.6945 396.0021 L785.9798 401.0653 L755.9582 407.3448 L729.1973 415.8548 L717.2169 421.2631 L706.2645 427.6092 L696.411 435.02 L687.7274 443.6221 L680.2844 453.5424 L674.1532 464.9075 L669.4046 477.8443 L666.1096 492.4794 L665.048 502.3492" clip-path="url(#clipPath2)"/>
    </g>
    <g stroke-linecap="butt" transform="matrix(1,0,0,1,-539,100)" fill="rgb(153,204,0)" text-rendering="geometricPrecision" shape-rendering="geometricPrecision" stroke-dasharray="18,6" stroke="rgb(153,204,0)" stroke-width="3" stroke-miterlimit="1.45">
      <path fill="none" d="M788.4268 502.352 L811.1412 302.6" clip-path="url(#clipPath2)"/>
      <path fill="none" d="M851.4199 502.352 L818.1481 302.6" clip-path="url(#clipPath2)"/>
      <path fill="none" d="M839.0047 279.0598 L858.9714 279.0598" clip-path="url(#clipPath2)" stroke="black"/>
      <path fill="none" d="M597.0068 502.352 L619.7212 302.6" clip-path="url(#clipPath2)"/>
      <path fill="none" d="M659.9999 502.352 L626.7281 302.6" clip-path="url(#clipPath2)"/>
      <path fill="none" d="M647.564 277.6 L667.5502 277.6" clip-path="url(#clipPath2)" stroke="black"/>
    </g>
    <g stroke-linecap="butt" transform="matrix(1,0,0,1,-539,100)" text-rendering="geometricPrecision" shape-rendering="geometricPrecision" stroke-dasharray="12,4" stroke-width="2" stroke-miterlimit="1.45">
      <path fill="none" d="M880.144 18.042 L880.144 38.042" clip-path="url(#clipPath2)"/>
      <path fill="none" d="M905.144 38.042 L925.144 18.042" clip-path="url(#clipPath2)"/>
      <path fill="none" d="M925.144 63.042 L905.144 63.042" clip-path="url(#clipPath2)"/>
    </g>
    <g stroke-linecap="butt" transform="matrix(1,0,0,1,-539,100)" fill="red" text-rendering="geometricPrecision" shape-rendering="geometricPrecision" stroke-dasharray="30,10" stroke="red" stroke-width="5" stroke-miterlimit="1.45">
      <path fill="none" d="M975.1494 69.9614 L1002.668 77.5763 L1042.1387 90.592 L1057.5618 97.3161 L1070.4209 104.6034 L1080.949 112.7683 L1089.3793 122.1251 L1095.9448 132.9879 L1100.8787 145.6712 L1104.4138 160.4892 L1106.7837 177.7561 L1108.9592 220.8943 L1109.0547 238.3103" clip-path="url(#clipPath2)"/>
    </g>
    <g text-rendering="geometricPrecision" stroke-miterlimit="1.45" stroke-width="6" shape-rendering="geometricPrecision" transform="matrix(1,0,0,1,-539,100)" stroke-linecap="butt">
      <path fill="none" d="M1467.0311 137.6 L1770.6 137.6" clip-path="url(#clipPath2)"/>
      <text x="1530.1731" font-size="24px" y="114.9846" clip-path="url(#clipPath2)" font-family="'Fira Code'" stroke="none" stroke-width="1" xml:space="preserve">Thick Device</text>
      <path fill="none" d="M1467.0311 222.6 L1770.6 222.6" stroke-width="2" clip-path="url(#clipPath2)"/>
      <text x="1537.5577" font-size="24px" y="199.9846" clip-path="url(#clipPath2)" font-family="'Fira Code'" stroke="none" stroke-width="1" xml:space="preserve">Thin Device</text>
    </g>
    <g stroke-linecap="butt" transform="matrix(1,0,0,1,-539,100)" fill="red" text-rendering="geometricPrecision" shape-rendering="geometricPrecision" stroke-dasharray="30,10" stroke="red" stroke-width="5" stroke-miterlimit="1.45">
      <path fill="none" d="M1467.0311 307.6 L1770.6 307.6" clip-path="url(#clipPath2)"/>
    </g>
    <g font-size="24px" stroke-linecap="butt" transform="matrix(1,0,0,1,-539,100)" text-rendering="geometricPrecision" font-family="'Fira Code'" shape-rendering="geometricPrecision" stroke-miterlimit="1.45">
      <text x="1515.4039" xml:space="preserve" y="284.9846" clip-path="url(#clipPath2)" stroke="none">Neighbour Link</text>
    </g>
    <g stroke-linecap="butt" transform="matrix(1,0,0,1,-539,100)" fill="rgb(153,204,0)" text-rendering="geometricPrecision" shape-rendering="geometricPrecision" stroke-dasharray="24,8" stroke="rgb(153,204,0)" stroke-width="4" stroke-miterlimit="1.45">
      <path fill="none" d="M1467.0311 392.6 L1770.6 392.6" clip-path="url(#clipPath2)"/>
    </g>
    <g font-size="24px" stroke-linecap="butt" transform="matrix(1,0,0,1,-539,100)" text-rendering="geometricPrecision" font-family="'Fira Code'" shape-rendering="geometricPrecision" stroke-miterlimit="1.45">
      <text x="1478.481" xml:space="preserve" y="369.9846" clip-path="url(#clipPath2)" stroke="none">Remote Communicator</text>
    </g>
    <g stroke-linecap="butt" transform="matrix(1,0,0,1,-539,100)" text-rendering="geometricPrecision" shape-rendering="geometricPrecision" stroke-dasharray="24,8" stroke-width="4" stroke-miterlimit="1.45">
      <path fill="none" d="M1467.0311 477.6 L1770.6 477.6" clip-path="url(#clipPath2)"/>
    </g>
    <g font-size="24px" stroke-linecap="butt" transform="matrix(1,0,0,1,-539,100)" text-rendering="geometricPrecision" font-family="'Fira Code'" shape-rendering="geometricPrecision" stroke-miterlimit="1.45">
      <text x="1456.3273" xml:space="preserve" y="454.9846" clip-path="url(#clipPath2)" stroke="none">In-Memory Communicator</text>
    </g>
  </g>
</svg>
