<?xml version="1.0" encoding="UTF-8"?><svg xmlns="http://www.w3.org/2000/svg" xmlns:xlink="http://www.w3.org/1999/xlink" fill-opacity="1" color-rendering="auto" color-interpolation="auto" text-rendering="auto" stroke="black" stroke-linecap="square" width="447" stroke-miterlimit="10" shape-rendering="auto" stroke-opacity="1" fill="black" stroke-dasharray="none" font-weight="normal" stroke-width="1" height="387" font-family="'Dialog'" font-style="normal" stroke-linejoin="miter" font-size="12px" stroke-dashoffset="0" image-rendering="auto">
  <!--Generated by ySVG 2.6-->
  <defs id="genericDefs"/>
  <g>
    <defs id="defs1">
      <clipPath clipPathUnits="userSpaceOnUse" id="clipPath1">
        <path d="M0 0 L447 0 L447 387 L0 387 L0 0 Z"/>
      </clipPath>
      <clipPath clipPathUnits="userSpaceOnUse" id="clipPath2">
        <path d="M387 383 L834 383 L834 770 L387 770 L387 383 Z"/>
      </clipPath>
    </defs>
    <g fill="white" text-rendering="geometricPrecision" shape-rendering="geometricPrecision" transform="translate(-387,-383)" stroke="white">
      <rect x="387" width="447" height="387" y="383" clip-path="url(#clipPath2)" stroke="none"/>
    </g>
    <g fill="rgb(255,255,153)" text-rendering="geometricPrecision" shape-rendering="geometricPrecision" transform="matrix(1,0,0,1,-387,-383)" stroke="rgb(255,255,153)">
      <circle r="40" clip-path="url(#clipPath2)" cx="474.84" cy="545" stroke="none"/>
    </g>
    <g text-rendering="geometricPrecision" stroke-miterlimit="1.45" shape-rendering="geometricPrecision" transform="matrix(1,0,0,1,-387,-383)" stroke-linecap="butt">
      <circle fill="none" r="40" clip-path="url(#clipPath2)" cx="474.84" cy="545"/>
      <text x="440.9941" font-size="11px" y="548.3846" clip-path="url(#clipPath2)" font-family="'Fira Code'" stroke="none" xml:space="preserve">Smartphone</text>
    </g>
    <g fill="gray" text-rendering="geometricPrecision" shape-rendering="geometricPrecision" transform="matrix(1,0,0,1,-387,-383)" stroke="gray">
      <circle r="40" clip-path="url(#clipPath2)" cx="474.84" cy="714.824" stroke="none"/>
    </g>
    <g text-rendering="geometricPrecision" stroke-miterlimit="1.45" shape-rendering="geometricPrecision" transform="matrix(1,0,0,1,-387,-383)" stroke-linecap="butt">
      <circle fill="none" r="40" clip-path="url(#clipPath2)" cx="474.84" cy="714.824"/>
      <text x="440.9941" font-size="11px" y="718.2086" clip-path="url(#clipPath2)" font-family="'Fira Code'" stroke="none" xml:space="preserve">Smartphone</text>
    </g>
    <g fill="aqua" text-rendering="geometricPrecision" shape-rendering="geometricPrecision" transform="matrix(1,0,0,1,-387,-383)" stroke="aqua">
      <circle r="40" clip-path="url(#clipPath2)" cx="612.28" cy="438.184" stroke="none"/>
    </g>
    <g text-rendering="geometricPrecision" stroke-miterlimit="1.45" shape-rendering="geometricPrecision" transform="matrix(1,0,0,1,-387,-383)" stroke-linecap="butt">
      <circle fill="none" r="40" clip-path="url(#clipPath2)" cx="612.28" cy="438.184"/>
      <text x="579.0494" xml:space="preserve" y="441.8763" clip-path="url(#clipPath2)" font-family="'Fira Code'" stroke="none">Estimator</text>
    </g>
    <g fill="rgb(255,255,153)" text-rendering="geometricPrecision" shape-rendering="geometricPrecision" transform="matrix(1,0,0,1,-387,-383)" stroke="rgb(255,255,153)">
      <circle r="40" clip-path="url(#clipPath2)" cx="749.72" cy="545" stroke="none"/>
    </g>
    <g text-rendering="geometricPrecision" stroke-miterlimit="1.45" shape-rendering="geometricPrecision" transform="matrix(1,0,0,1,-387,-383)" stroke-linecap="butt">
      <circle fill="none" r="40" clip-path="url(#clipPath2)" cx="749.72" cy="545"/>
      <text x="715.8741" font-size="11px" y="548.3846" clip-path="url(#clipPath2)" font-family="'Fira Code'" stroke="none" xml:space="preserve">Smartphone</text>
    </g>
    <g fill="gray" text-rendering="geometricPrecision" shape-rendering="geometricPrecision" transform="matrix(1,0,0,1,-387,-383)" stroke="gray">
      <circle r="40" clip-path="url(#clipPath2)" cx="749.72" cy="714.824" stroke="none"/>
    </g>
    <g text-rendering="geometricPrecision" stroke-miterlimit="1.45" shape-rendering="geometricPrecision" transform="matrix(1,0,0,1,-387,-383)" stroke-linecap="butt">
      <circle fill="none" r="40" clip-path="url(#clipPath2)" cx="749.72" cy="714.824"/>
      <text x="715.8741" font-size="11px" y="718.2086" clip-path="url(#clipPath2)" font-family="'Fira Code'" stroke="none" xml:space="preserve">Smartphone</text>
      <path fill="none" d="M468.5888 675.3037 L466.434 661.6805 L464.3325 642.7559 L463.632 626.276 L464.3325 610.2505 L466.434 592.6895 L467.9034 584.3531" clip-path="url(#clipPath2)"/>
      <path fill="none" d="M457.393 678.8444 L438.1169 639.0931 L424.2221 608.2708 L413.5735 581.6035 L406.3725 558.686 L402.8203 539.113 L403.1184 522.4795 L404.7742 515.1383 L407.468 508.38 L411.2251 502.1539 L416.0705 496.4094 L429.1272 486.1624 L446.8394 477.2339 L469.4085 469.2185 L497.0358 461.7111 L529.9226 454.3063 L572.9913 445.8752" clip-path="url(#clipPath2)"/>
      <path fill="none" d="M498.2648 512.5795 L503.362 505.5249 L515.0559 492.1095 L527.186 481.2398 L541.3628 471.6642 L559.197 462.1309 L575.8114 454.6358" clip-path="url(#clipPath2)"/>
      <path fill="none" d="M508.624 693.4678 L629.8 616.868 L715.4362 565.5463" clip-path="url(#clipPath2)"/>
      <path fill="none" d="M724.976 513.5829 L718.3224 505.135 L705.9097 491.6221 L693.54 480.72 L679.6028 471.1769 L662.4875 461.741 L648.4892 455.1731" clip-path="url(#clipPath2)"/>
      <path fill="none" d="M710.4088 537.6146 L673.263 530.636 L645.0219 527.045 L619.144 525.848 L592.4081 527.045 L561.593 530.636 L514.277 538.4703" clip-path="url(#clipPath2)"/>
      <path fill="none" d="M514.2388 721.4883 L559.865 729.206 L590.2481 732.8015 L616.84 734 L642.8619 732.8015 L671.535 729.206 L710.3602 722.0641" clip-path="url(#clipPath2)"/>
      <path fill="none" d="M508.8694 566.0237 L715.6906 693.8002" clip-path="url(#clipPath2)"/>
      <path fill="none" d="M766.5057 678.5486 L784.7631 639.0931 L797.9979 608.2708 L808.1065 581.6035 L814.8875 558.686 L818.1397 539.113 L817.6616 522.4795 L815.9608 515.1383 L813.252 508.38 L809.5099 502.1539 L804.7095 496.4094 L791.8328 486.1624 L774.4206 477.2339 L752.2715 469.2185 L725.1843 461.7111 L692.9575 454.3063 L651.4763 446.0168" clip-path="url(#clipPath2)"/>
      <path fill="none" d="M757.1161 675.5316 L759.6138 662.263 L762.0872 643.4841 L762.9117 627.0527 L762.0872 610.9787 L759.6138 593.272 L757.749 584.1739" clip-path="url(#clipPath2)"/>
    </g>
  </g>
</svg>
