<?xml version="1.0" encoding="UTF-8"?><svg xmlns="http://www.w3.org/2000/svg" xmlns:xlink="http://www.w3.org/1999/xlink" fill-opacity="1" color-rendering="auto" color-interpolation="auto" text-rendering="auto" stroke="black" stroke-linecap="square" width="676" stroke-miterlimit="10" shape-rendering="auto" stroke-opacity="1" fill="black" stroke-dasharray="none" font-weight="normal" stroke-width="1" height="675" font-family="'Dialog'" font-style="normal" stroke-linejoin="miter" font-size="12px" stroke-dashoffset="0" image-rendering="auto">
  <!--Generated by ySVG 2.6-->
  <defs id="genericDefs"/>
  <g>
    <defs id="defs1">
      <clipPath clipPathUnits="userSpaceOnUse" id="clipPath1">
        <path d="M0 0 L676 0 L676 675 L0 675 L0 0 Z"/>
      </clipPath>
      <clipPath clipPathUnits="userSpaceOnUse" id="clipPath2">
        <path d="M357 125 L1033 125 L1033 800 L357 800 L357 125 Z"/>
      </clipPath>
    </defs>
    <g fill="rgb(204,255,204)" text-rendering="geometricPrecision" shape-rendering="geometricPrecision" transform="matrix(1,0,0,1,-357,-125)" stroke="rgb(204,255,204)">
      <circle r="107.5" clip-path="url(#clipPath2)" cx="695" cy="247.5" stroke="none"/>
    </g>
    <g stroke-linecap="butt" transform="matrix(1,0,0,1,-357,-125)" fill="gray" text-rendering="geometricPrecision" shape-rendering="geometricPrecision" stroke="gray" stroke-miterlimit="1.45">
      <circle fill="none" r="107.5" clip-path="url(#clipPath2)" cx="695" cy="247.5"/>
    </g>
    <g font-size="26px" stroke-linecap="butt" transform="matrix(1,0,0,1,-357,-125)" text-rendering="geometricPrecision" font-family="'Fira Code SemiBold'" shape-rendering="geometricPrecision" stroke-miterlimit="1.45">
      <text x="639.0001" xml:space="preserve" y="239.5" clip-path="url(#clipPath2)" stroke="none">Context</text>
      <text x="607.0001" xml:space="preserve" y="271.5" clip-path="url(#clipPath2)" stroke="none">acquisition</text>
      <text x="688.2308" font-size="22px" y="183.7692" clip-path="url(#clipPath2)" fill="gray" stroke="none" xml:space="preserve">1</text>
    </g>
    <g fill="rgb(204,255,204)" text-rendering="geometricPrecision" shape-rendering="geometricPrecision" transform="matrix(1,0,0,1,-357,-125)" stroke="rgb(204,255,204)">
      <circle r="107.5" clip-path="url(#clipPath2)" cx="910" cy="462.5" stroke="none"/>
    </g>
    <g stroke-linecap="butt" transform="matrix(1,0,0,1,-357,-125)" fill="gray" text-rendering="geometricPrecision" shape-rendering="geometricPrecision" stroke="gray" stroke-miterlimit="1.45">
      <circle fill="none" r="107.5" clip-path="url(#clipPath2)" cx="910" cy="462.5"/>
    </g>
    <g font-size="26px" stroke-linecap="butt" transform="matrix(1,0,0,1,-357,-125)" text-rendering="geometricPrecision" font-family="'Fira Code SemiBold'" shape-rendering="geometricPrecision" stroke-miterlimit="1.45">
      <text x="822.0001" xml:space="preserve" y="470.5" clip-path="url(#clipPath2)" stroke="none">Computation</text>
      <text x="903.2308" font-size="22px" y="398.7692" clip-path="url(#clipPath2)" fill="gray" stroke="none" xml:space="preserve">2</text>
    </g>
    <g fill="rgb(204,255,204)" text-rendering="geometricPrecision" shape-rendering="geometricPrecision" transform="matrix(1,0,0,1,-357,-125)" stroke="rgb(204,255,204)">
      <circle r="107.5" clip-path="url(#clipPath2)" cx="695" cy="677.5" stroke="none"/>
    </g>
    <g stroke-linecap="butt" transform="matrix(1,0,0,1,-357,-125)" fill="gray" text-rendering="geometricPrecision" shape-rendering="geometricPrecision" stroke="gray" stroke-miterlimit="1.45">
      <circle fill="none" r="107.5" clip-path="url(#clipPath2)" cx="695" cy="677.5"/>
    </g>
    <g font-size="24px" stroke-linecap="butt" transform="matrix(1,0,0,1,-357,-125)" text-rendering="geometricPrecision" font-family="'Fira Code SemiBold'" shape-rendering="geometricPrecision" stroke-miterlimit="1.45">
      <text x="606.3849" xml:space="preserve" y="655.3463" clip-path="url(#clipPath2)" stroke="none">Coordination</text>
      <text x="665.4617" xml:space="preserve" y="684.8846" clip-path="url(#clipPath2)" stroke="none">data</text>
      <text x="613.7695" xml:space="preserve" y="714.4229" clip-path="url(#clipPath2)" stroke="none">propagation</text>
      <text x="688.2308" font-size="22px" y="608.7692" clip-path="url(#clipPath2)" fill="gray" stroke="none" xml:space="preserve">3</text>
    </g>
    <g fill="rgb(204,255,204)" text-rendering="geometricPrecision" shape-rendering="geometricPrecision" transform="matrix(1,0,0,1,-357,-125)" stroke="rgb(204,255,204)">
      <circle r="107.5" clip-path="url(#clipPath2)" cx="480" cy="462.5" stroke="none"/>
    </g>
    <g stroke-linecap="butt" transform="matrix(1,0,0,1,-357,-125)" fill="gray" text-rendering="geometricPrecision" shape-rendering="geometricPrecision" stroke="gray" stroke-miterlimit="1.45">
      <circle fill="none" r="107.5" clip-path="url(#clipPath2)" cx="480" cy="462.5"/>
    </g>
    <g font-size="26px" stroke-linecap="butt" transform="matrix(1,0,0,1,-357,-125)" text-rendering="geometricPrecision" font-family="'Fira Code SemiBold'" shape-rendering="geometricPrecision" stroke-miterlimit="1.45">
      <text x="408.0001" xml:space="preserve" y="470.5" clip-path="url(#clipPath2)" stroke="none">Actuation</text>
      <text x="473.2308" font-size="22px" y="397.7692" clip-path="url(#clipPath2)" fill="gray" stroke="none" xml:space="preserve">4</text>
    </g>
    <g stroke-linecap="butt" transform="matrix(1,0,0,1,-357,-125)" fill="gray" text-rendering="geometricPrecision" shape-rendering="geometricPrecision" stroke="gray" stroke-width="5" stroke-miterlimit="1.45">
      <path fill="none" d="M771.014 323.514 L822.3188 374.8188" clip-path="url(#clipPath2)"/>
      <path d="M833.986 386.486 L827.6221 367.3941 L814.8942 380.122 Z" clip-path="url(#clipPath2)" stroke="none"/>
      <path fill="none" d="M833.986 538.514 L782.6812 589.8188" clip-path="url(#clipPath2)"/>
      <path d="M771.014 601.486 L790.1058 595.1221 L777.3779 582.3942 Z" clip-path="url(#clipPath2)" stroke="none"/>
      <path fill="none" d="M618.986 601.486 L567.6812 550.1812" clip-path="url(#clipPath2)"/>
      <path d="M556.014 538.514 L562.3779 557.6058 L575.1058 544.8779 Z" clip-path="url(#clipPath2)" stroke="none"/>
      <path fill="none" d="M556.014 386.486 L607.3188 335.1812" clip-path="url(#clipPath2)"/>
      <path d="M618.986 323.514 L599.8942 329.878 L612.6221 342.6059 Z" clip-path="url(#clipPath2)" stroke="none"/>
    </g>
  </g>
</svg>
